<?xml version="1.0" encoding="utf-8"?>
<!-- Generator: Adobe Illustrator 25.0.1, SVG Export Plug-In . SVG Version: 6.00 Build 0)  -->
<svg version="1.1" id="Calque_1" xmlns="http://www.w3.org/2000/svg" xmlns:xlink="http://www.w3.org/1999/xlink" x="0px" y="0px"
	 viewBox="0 0 300 300" style="enable-background:new 0 0 300 300;" xml:space="preserve">
<style type="text/css">
	.st0{fill:none;stroke:url(#SVGID_1_);stroke-width:30;stroke-linecap:round;stroke-miterlimit:10;}
	.st1{fill:none;stroke:url(#SVGID_2_);stroke-width:30;stroke-linecap:round;stroke-miterlimit:10;}
	.st2{fill:#FFFFFF;}
</style>
<linearGradient id="SVGID_1_" gradientUnits="userSpaceOnUse" x1="516.8966" y1="318.3222" x2="516.8966" y2="54.5288" gradientTransform="matrix(-6.123234e-17 -1 1 -6.123234e-17 -37 670)">
	<stop  offset="0" style="stop-color:#800046"/>
	<stop  offset="0.0995" style="stop-color:#770745"/>
	<stop  offset="0.2646" style="stop-color:#5D1841"/>
	<stop  offset="0.3104" style="stop-color:#551E40"/>
	<stop  offset="0.6788" style="stop-color:#412758"/>
	<stop  offset="0.9944" style="stop-color:#312752"/>
</linearGradient>
<path class="st0" d="M263.34,126.76c1.95,8.47,2.98,17.28,2.98,26.34c0,64.56-52.34,116.9-116.9,116.9s-116.9-52.34-116.9-116.9
	s52.34-116.9,116.9-116.9c22.45,0,43.42,6.33,61.23,17.3"/>
<linearGradient id="SVGID_2_" gradientUnits="userSpaceOnUse" x1="562.968" y1="293.893" x2="562.968" y2="293.893" gradientTransform="matrix(-6.123234e-17 -1 1 -6.123234e-17 -37 670)">
	<stop  offset="0" style="stop-color:#800046"/>
	<stop  offset="0.0995" style="stop-color:#770745"/>
	<stop  offset="0.2646" style="stop-color:#5D1841"/>
	<stop  offset="0.3104" style="stop-color:#551E40"/>
	<stop  offset="0.6788" style="stop-color:#412758"/>
	<stop  offset="0.9944" style="stop-color:#312752"/>
</linearGradient>
<path class="st1" d="M256.89,107.03"/>
<g>
	<g>
		<path class="st2" d="M115.88,166.96c-2.24,0-4.22-0.26-5.93-0.79c-1.71-0.53-3.14-1.26-4.3-2.21c-1.15-0.94-2.02-2.05-2.59-3.31
			s-0.86-2.65-0.86-4.15c0-1.82,0.45-3.41,1.34-4.75c0.9-1.34,2.03-2.38,3.41-3.12c-1.12-0.74-1.99-1.67-2.62-2.81
			c-0.62-1.14-0.94-2.46-0.94-3.96c0-1.82,0.46-3.44,1.39-4.85c0.93-1.41,2.31-2.53,4.15-3.36c1.84-0.83,4.15-1.25,6.94-1.25
			c2.75,0,5.04,0.41,6.86,1.22c1.82,0.82,3.2,1.93,4.13,3.34c0.93,1.41,1.39,3.02,1.39,4.85c0,1.5-0.3,2.83-0.91,3.98
			c-0.61,1.15-1.47,2.1-2.59,2.83c1.47,0.7,2.64,1.74,3.5,3.12c0.86,1.38,1.3,2.98,1.3,4.8c0,1.98-0.51,3.76-1.54,5.33
			c-1.02,1.57-2.56,2.81-4.61,3.72C121.37,166.5,118.86,166.96,115.88,166.96z M115.88,161.44c1.12,0,2.14-0.2,3.07-0.6
			c0.93-0.4,1.66-0.97,2.18-1.7c0.53-0.74,0.79-1.6,0.79-2.59c0-1.02-0.26-1.9-0.79-2.62c-0.53-0.72-1.26-1.28-2.18-1.68
			c-0.93-0.4-1.95-0.6-3.07-0.6c-1.15,0-2.18,0.2-3.1,0.6c-0.91,0.4-1.64,0.96-2.18,1.68c-0.54,0.72-0.82,1.59-0.82,2.62
			c0,0.99,0.27,1.86,0.82,2.59c0.54,0.74,1.27,1.3,2.18,1.7C113.7,161.24,114.73,161.44,115.88,161.44z M115.88,146.41
			c0.99-0.03,1.89-0.22,2.69-0.58c0.8-0.35,1.44-0.84,1.92-1.46s0.72-1.35,0.72-2.18c0-0.86-0.23-1.61-0.7-2.23
			c-0.46-0.62-1.1-1.11-1.9-1.46c-0.8-0.35-1.71-0.53-2.74-0.53c-1.02,0-1.94,0.18-2.76,0.53c-0.82,0.35-1.45,0.84-1.9,1.46
			c-0.45,0.62-0.67,1.37-0.67,2.23c0,0.86,0.22,1.61,0.67,2.23c0.45,0.62,1.08,1.11,1.9,1.46
			C113.94,146.24,114.86,146.41,115.88,146.41z"/>
		<path class="st2" d="M147.9,166.96c-2.3,0-4.28-0.33-5.93-0.98c-1.65-0.66-3.01-1.57-4.08-2.74c-1.07-1.17-1.87-2.53-2.4-4.08
			c-0.53-1.55-0.84-3.21-0.94-4.97c-0.03-0.86-0.06-1.83-0.07-2.9c-0.02-1.07-0.02-2.15,0-3.24c0.02-1.09,0.04-2.08,0.07-2.98
			c0.06-1.76,0.38-3.41,0.94-4.94c0.56-1.54,1.38-2.88,2.47-4.03c1.09-1.15,2.46-2.06,4.1-2.71c1.65-0.66,3.59-0.98,5.83-0.98
			c2.24,0,4.18,0.33,5.81,0.98c1.63,0.66,2.99,1.56,4.08,2.71c1.09,1.15,1.91,2.5,2.47,4.03c0.56,1.54,0.89,3.18,0.98,4.94
			c0.03,0.9,0.05,1.89,0.07,2.98c0.02,1.09,0.02,2.17,0,3.24c-0.02,1.07-0.04,2.04-0.07,2.9c-0.1,1.76-0.42,3.42-0.96,4.97
			c-0.54,1.55-1.35,2.91-2.42,4.08s-2.43,2.08-4.08,2.74C152.13,166.63,150.17,166.96,147.9,166.96z M147.9,160.72
			c1.86,0,3.22-0.61,4.08-1.82c0.86-1.22,1.33-2.86,1.39-4.94c0.03-0.93,0.06-1.89,0.07-2.88c0.02-0.99,0.02-1.98,0-2.98
			c-0.02-0.99-0.04-1.92-0.07-2.78c-0.06-1.98-0.53-3.6-1.39-4.85s-2.22-1.89-4.08-1.92c-1.89,0.03-3.26,0.67-4.1,1.92
			c-0.85,1.25-1.3,2.86-1.37,4.85c-0.03,0.86-0.06,1.79-0.07,2.78c-0.02,0.99-0.02,1.98,0,2.98c0.02,0.99,0.04,1.95,0.07,2.88
			c0.06,2.08,0.53,3.73,1.39,4.94C144.68,160.11,146.04,160.72,147.9,160.72z"/>
		<path class="st2" d="M173.14,149.82c-2.18,0-3.9-0.57-5.16-1.7c-1.26-1.14-1.96-2.66-2.09-4.58c-0.06-0.83-0.09-1.56-0.07-2.18
			c0.02-0.62,0.04-1.38,0.07-2.28c0.1-1.95,0.76-3.51,1.99-4.68c1.23-1.17,2.98-1.75,5.26-1.75c2.3,0,4.06,0.58,5.28,1.75
			c1.22,1.17,1.87,2.73,1.97,4.68c0.06,0.9,0.1,1.66,0.1,2.28s-0.03,1.35-0.1,2.18c-0.1,1.92-0.78,3.45-2.06,4.58
			C177.05,149.25,175.32,149.82,173.14,149.82z M169.26,166.48c-0.7,0-1.06-0.32-1.06-0.96c0-0.19,0.06-0.37,0.19-0.53l23.71-31.2
			c0.22-0.29,0.45-0.51,0.67-0.67c0.22-0.16,0.54-0.24,0.96-0.24h2.98c0.7,0,1.06,0.32,1.06,0.96c0,0.19-0.06,0.37-0.19,0.53
			l-23.71,31.2c-0.22,0.29-0.44,0.51-0.65,0.67c-0.21,0.16-0.54,0.24-0.98,0.24H169.26z M173.14,145.93c0.61,0,1.09-0.13,1.44-0.38
			c0.35-0.26,0.62-0.59,0.79-1.01c0.17-0.42,0.28-0.83,0.31-1.25c0.06-0.77,0.1-1.45,0.1-2.04c0-0.59-0.03-1.24-0.1-1.94
			c-0.03-0.67-0.24-1.29-0.62-1.85c-0.38-0.56-1.02-0.84-1.92-0.84c-0.9,0-1.53,0.28-1.9,0.84c-0.37,0.56-0.58,1.18-0.65,1.85
			c-0.03,0.7-0.05,1.35-0.05,1.94c0,0.59,0.02,1.27,0.05,2.04c0.06,0.42,0.18,0.83,0.34,1.25c0.16,0.42,0.42,0.75,0.77,1.01
			C172.06,145.8,172.54,145.93,173.14,145.93z M192.87,166.72c-2.18,0-3.9-0.58-5.16-1.73c-1.26-1.15-1.96-2.69-2.09-4.61
			c-0.06-0.83-0.09-1.57-0.07-2.21c0.02-0.64,0.04-1.41,0.07-2.3c0.1-1.92,0.76-3.47,1.99-4.66c1.23-1.18,2.98-1.78,5.26-1.78
			c2.27,0,4.02,0.59,5.26,1.78c1.23,1.18,1.9,2.74,1.99,4.66c0.06,0.9,0.1,1.66,0.1,2.3c0,0.64-0.03,1.38-0.1,2.21
			c-0.1,1.92-0.79,3.46-2.09,4.61C196.74,166.14,195.02,166.72,192.87,166.72z M192.87,162.78c0.61,0,1.09-0.13,1.44-0.38
			c0.35-0.26,0.62-0.59,0.79-1.01s0.28-0.85,0.31-1.3c0.06-0.74,0.1-1.4,0.1-1.99c0-0.59-0.03-1.25-0.1-1.99
			c-0.03-0.67-0.24-1.28-0.62-1.82s-1.02-0.82-1.92-0.82c-0.9,0-1.53,0.27-1.9,0.82c-0.37,0.54-0.58,1.15-0.65,1.82
			c-0.03,0.74-0.05,1.4-0.05,1.99c0,0.59,0.02,1.26,0.05,1.99c0.06,0.45,0.17,0.88,0.31,1.3c0.14,0.42,0.4,0.75,0.77,1.01
			C191.78,162.65,192.26,162.78,192.87,162.78z"/>
	</g>
</g>
</svg>
