<?xml version="1.0" encoding="utf-8"?>
<!-- Generator: Adobe Illustrator 25.0.1, SVG Export Plug-In . SVG Version: 6.00 Build 0)  -->
<svg version="1.1" id="Calque_1" xmlns="http://www.w3.org/2000/svg" xmlns:xlink="http://www.w3.org/1999/xlink" x="0px" y="0px"
	 viewBox="0 0 300 300" style="enable-background:new 0 0 300 300;" xml:space="preserve">
<style type="text/css">
	.st0{fill:none;stroke:url(#SVGID_1_);stroke-width:30;stroke-linecap:round;stroke-miterlimit:10;}
	.st1{fill:none;stroke:url(#SVGID_2_);stroke-width:30;stroke-linecap:round;stroke-miterlimit:10;}
	.st2{fill:#FFFFFF;}
</style>
<linearGradient id="SVGID_1_" gradientUnits="userSpaceOnUse" x1="516.8966" y1="318.3222" x2="516.8966" y2="54.5288" gradientTransform="matrix(-6.123234e-17 -1 1 -6.123234e-17 -37 670)">
	<stop  offset="0" style="stop-color:#800046"/>
	<stop  offset="0.0995" style="stop-color:#770745"/>
	<stop  offset="0.2646" style="stop-color:#5D1841"/>
	<stop  offset="0.3104" style="stop-color:#551E40"/>
	<stop  offset="0.6788" style="stop-color:#412758"/>
	<stop  offset="0.9944" style="stop-color:#312752"/>
</linearGradient>
<path class="st0" d="M263.34,126.76c1.95,8.47,2.98,17.28,2.98,26.34c0,64.56-52.34,116.9-116.9,116.9s-116.9-52.34-116.9-116.9
	s52.34-116.9,116.9-116.9c22.45,0,43.42,6.33,61.23,17.3"/>
<linearGradient id="SVGID_2_" gradientUnits="userSpaceOnUse" x1="562.968" y1="293.893" x2="562.968" y2="293.893" gradientTransform="matrix(-6.123234e-17 -1 1 -6.123234e-17 -37 670)">
	<stop  offset="0" style="stop-color:#800046"/>
	<stop  offset="0.0995" style="stop-color:#770745"/>
	<stop  offset="0.2646" style="stop-color:#5D1841"/>
	<stop  offset="0.3104" style="stop-color:#551E40"/>
	<stop  offset="0.6788" style="stop-color:#412758"/>
	<stop  offset="0.9944" style="stop-color:#312752"/>
</linearGradient>
<path class="st1" d="M256.89,107.03"/>
<g>
	<g>
		<path class="st2" d="M108.49,166.48c-0.29,0-0.53-0.1-0.72-0.31c-0.19-0.21-0.29-0.46-0.29-0.74c0-0.16,0.02-0.29,0.07-0.38
			c0.05-0.1,0.09-0.18,0.12-0.24l6.96-9.5c-0.58,0.13-1.15,0.18-1.73,0.14c-1.54-0.06-2.99-0.38-4.37-0.94
			c-1.38-0.56-2.61-1.34-3.7-2.33c-1.09-0.99-1.94-2.16-2.54-3.5c-0.61-1.34-0.91-2.83-0.91-4.46c0-1.47,0.28-2.91,0.84-4.32
			c0.56-1.41,1.4-2.67,2.52-3.79c1.12-1.12,2.51-2.02,4.18-2.69c1.66-0.67,3.6-1.01,5.81-1.01s4.15,0.3,5.83,0.91
			c1.68,0.61,3.1,1.45,4.25,2.52c1.15,1.07,2.02,2.3,2.59,3.7c0.58,1.39,0.86,2.87,0.86,4.44c0,1.41-0.24,2.72-0.72,3.94
			c-0.48,1.22-1.07,2.35-1.78,3.41c-0.7,1.06-1.41,2.08-2.11,3.07l-8.06,11.14c-0.13,0.16-0.32,0.36-0.58,0.6
			c-0.26,0.24-0.62,0.36-1.1,0.36H108.49z M114.78,149.77c1.06,0,2.02-0.22,2.88-0.67c0.86-0.45,1.54-1.09,2.04-1.92
			c0.5-0.83,0.74-1.82,0.74-2.98c0-1.18-0.25-2.19-0.74-3.02c-0.5-0.83-1.18-1.47-2.04-1.92c-0.86-0.45-1.82-0.67-2.88-0.67
			c-1.02,0-1.97,0.22-2.83,0.67c-0.86,0.45-1.54,1.09-2.04,1.92c-0.5,0.83-0.74,1.84-0.74,3.02c0,1.15,0.25,2.14,0.74,2.98
			c0.5,0.83,1.18,1.47,2.04,1.92C112.81,149.55,113.75,149.77,114.78,149.77z"/>
		<path class="st2" d="M146.12,166.96c-2.3,0-4.28-0.33-5.93-0.98c-1.65-0.66-3.01-1.57-4.08-2.74c-1.07-1.17-1.87-2.53-2.4-4.08
			c-0.53-1.55-0.84-3.21-0.94-4.97c-0.03-0.86-0.06-1.83-0.07-2.9c-0.02-1.07-0.02-2.15,0-3.24c0.02-1.09,0.04-2.08,0.07-2.98
			c0.06-1.76,0.38-3.41,0.94-4.94c0.56-1.54,1.38-2.88,2.47-4.03c1.09-1.15,2.46-2.06,4.1-2.71c1.65-0.66,3.59-0.98,5.83-0.98
			c2.24,0,4.18,0.33,5.81,0.98c1.63,0.66,2.99,1.56,4.08,2.71c1.09,1.15,1.91,2.5,2.47,4.03c0.56,1.54,0.89,3.18,0.98,4.94
			c0.03,0.9,0.05,1.89,0.07,2.98c0.02,1.09,0.02,2.17,0,3.24c-0.02,1.07-0.04,2.04-0.07,2.9c-0.1,1.76-0.42,3.42-0.96,4.97
			c-0.54,1.55-1.35,2.91-2.42,4.08s-2.43,2.08-4.08,2.74C150.35,166.63,148.39,166.96,146.12,166.96z M146.12,160.72
			c1.86,0,3.22-0.61,4.08-1.82c0.86-1.22,1.33-2.86,1.39-4.94c0.03-0.93,0.06-1.89,0.07-2.88c0.02-0.99,0.02-1.98,0-2.98
			c-0.02-0.99-0.04-1.92-0.07-2.78c-0.06-1.98-0.53-3.6-1.39-4.85c-0.86-1.25-2.22-1.89-4.08-1.92c-1.89,0.03-3.26,0.67-4.1,1.92
			c-0.85,1.25-1.3,2.86-1.37,4.85c-0.03,0.86-0.06,1.79-0.07,2.78c-0.02,0.99-0.02,1.98,0,2.98c0.02,0.99,0.04,1.95,0.07,2.88
			c0.06,2.08,0.53,3.73,1.39,4.94C142.9,160.11,144.26,160.72,146.12,160.72z"/>
		<path class="st2" d="M171.37,149.82c-2.18,0-3.9-0.57-5.16-1.7c-1.26-1.14-1.96-2.66-2.09-4.58c-0.06-0.83-0.09-1.56-0.07-2.18
			c0.02-0.62,0.04-1.38,0.07-2.28c0.1-1.95,0.76-3.51,1.99-4.68c1.23-1.17,2.98-1.75,5.26-1.75c2.3,0,4.06,0.58,5.28,1.75
			c1.22,1.17,1.87,2.73,1.97,4.68c0.06,0.9,0.1,1.66,0.1,2.28s-0.03,1.35-0.1,2.18c-0.1,1.92-0.78,3.45-2.06,4.58
			C175.27,149.25,173.54,149.82,171.37,149.82z M167.48,166.48c-0.7,0-1.06-0.32-1.06-0.96c0-0.19,0.06-0.37,0.19-0.53l23.71-31.2
			c0.22-0.29,0.45-0.51,0.67-0.67c0.22-0.16,0.54-0.24,0.96-0.24h2.98c0.7,0,1.06,0.32,1.06,0.96c0,0.19-0.06,0.37-0.19,0.53
			l-23.71,31.2c-0.22,0.29-0.44,0.51-0.65,0.67c-0.21,0.16-0.54,0.24-0.98,0.24H167.48z M171.37,145.93c0.61,0,1.09-0.13,1.44-0.38
			c0.35-0.26,0.62-0.59,0.79-1.01c0.17-0.42,0.28-0.83,0.31-1.25c0.06-0.77,0.1-1.45,0.1-2.04c0-0.59-0.03-1.24-0.1-1.94
			c-0.03-0.67-0.24-1.29-0.62-1.85c-0.38-0.56-1.02-0.84-1.92-0.84c-0.9,0-1.53,0.28-1.9,0.84c-0.37,0.56-0.58,1.18-0.65,1.85
			c-0.03,0.7-0.05,1.35-0.05,1.94c0,0.59,0.02,1.27,0.05,2.04c0.06,0.42,0.18,0.83,0.34,1.25c0.16,0.42,0.42,0.75,0.77,1.01
			C170.28,145.8,170.76,145.93,171.37,145.93z M191.1,166.72c-2.18,0-3.9-0.58-5.16-1.73c-1.26-1.15-1.96-2.69-2.09-4.61
			c-0.06-0.83-0.09-1.57-0.07-2.21c0.02-0.64,0.04-1.41,0.07-2.3c0.1-1.92,0.76-3.47,1.99-4.66c1.23-1.18,2.98-1.78,5.26-1.78
			c2.27,0,4.02,0.59,5.26,1.78c1.23,1.18,1.9,2.74,1.99,4.66c0.06,0.9,0.1,1.66,0.1,2.3c0,0.64-0.03,1.38-0.1,2.21
			c-0.1,1.92-0.79,3.46-2.09,4.61C194.96,166.14,193.24,166.72,191.1,166.72z M191.1,162.78c0.61,0,1.09-0.13,1.44-0.38
			c0.35-0.26,0.62-0.59,0.79-1.01s0.28-0.85,0.31-1.3c0.06-0.74,0.1-1.4,0.1-1.99c0-0.59-0.03-1.25-0.1-1.99
			c-0.03-0.67-0.24-1.28-0.62-1.82s-1.02-0.82-1.92-0.82c-0.9,0-1.53,0.27-1.9,0.82c-0.37,0.54-0.58,1.15-0.65,1.82
			c-0.03,0.74-0.05,1.4-0.05,1.99c0,0.59,0.02,1.26,0.05,1.99c0.06,0.45,0.17,0.88,0.31,1.3c0.14,0.42,0.4,0.75,0.77,1.01
			C190,162.65,190.49,162.78,191.1,162.78z"/>
	</g>
</g>
</svg>
